<svg width="32" height="32" viewBox="0 0 32 32" fill="none" xmlns="http://www.w3.org/2000/svg">
  <!-- Background -->
  <rect width="32" height="32" rx="4" fill="#00695C"/>

  <!-- Curtain Rod -->
  <rect x="4" y="5" width="24" height="2" rx="1" fill="#B2DFDB"/>

  <!-- Curtain Folds -->
  <path d="M6 7 Q8 12 6 18 Q8 24 6 28" stroke="#E0F2F1" stroke-width="2" fill="none"/>
  <path d="M11 7 Q13 12 11 18 Q13 24 11 28" stroke="#E0F2F1" stroke-width="2" fill="none"/>
  <path d="M16 7 Q18 12 16 18 Q18 24 16 28" stroke="#E0F2F1" stroke-width="2" fill="none"/>
  <path d="M21 7 Q23 12 21 18 Q23 24 21 28" stroke="#E0F2F1" stroke-width="2" fill="none"/>
  <path d="M26 7 Q28 12 26 18 Q28 24 26 28" stroke="#E0F2F1" stroke-width="2" fill="none"/>

  <!-- Curtain Rings -->
  <circle cx="6" cy="6" r="1.5" fill="#B2DFDB"/>
  <circle cx="11" cy="6" r="1.5" fill="#B2DFDB"/>
  <circle cx="16" cy="6" r="1.5" fill="#B2DFDB"/>
  <circle cx="21" cy="6" r="1.5" fill="#B2DFDB"/>
  <circle cx="26" cy="6" r="1.5" fill="#B2DFDB"/>

  <!-- Water Drop Accent -->
  <path d="M27 22C27 22 29 18 29 17C29 15.8 28.1 15 27 15C25.9 15 25 15.8 25 17C25 18 27 22 27 22Z" fill="#FF6F00"/>
</svg>
