<svg xmlns="http://www.w3.org/2000/svg" viewBox="0 0 56 56" width="56" height="56">
  <rect width="56" height="56" rx="12" fill="#00695C"/>
  <!-- Curtain rod -->
  <rect x="10" y="14" width="36" height="3" rx="1.5" fill="#B2DFDB"/>
  <circle cx="10" cy="15.5" r="2.5" fill="#B2DFDB"/>
  <circle cx="46" cy="15.5" r="2.5" fill="#B2DFDB"/>
  <!-- Curtain with wavy folds -->
  <path d="M14,19 C14,19 16,20 16,24 L16,42 C16,43 17,44 18,44 L21,44 C22,44 23,43 23,42 L23,21 C23,19 25,19 27,21 L27,43 C27,44 28,44 29,44 L32,44 C33,44 34,43 34,42 L34,22 C34,19 36,19 38,21 L38,42 C38,43 39,44 40,44 L42,44 C43,44 43,43 43,42 L43,24 C43,20 44,19 44,19" fill="rgba(255,255,255,0.85)" stroke="none"/>
  <!-- Water drops -->
  <circle cx="20" cy="30" r="1.5" fill="#80CBC4" opacity="0.6"/>
  <circle cx="31" cy="35" r="1.2" fill="#80CBC4" opacity="0.5"/>
  <circle cx="40" cy="28" r="1" fill="#80CBC4" opacity="0.4"/>
</svg>